<svg width="43" height="43" viewBox="0 0 43 43" fill="none" xmlns="http://www.w3.org/2000/svg">
<g filter="url(#filter0_d_21898_799)">
<path d="M15.0709 8.58472C14.9437 8.45756 14.7674 8.3844 14.5876 8.3844C14.4078 8.3844 14.2314 8.45756 14.1043 8.58472C13.9772 8.71189 13.904 8.88828 13.904 9.0681C13.904 9.24791 13.9771 9.4243 14.1043 9.55147C14.2314 9.67871 14.4078 9.75179 14.5876 9.75179C14.7674 9.75179 14.9437 9.67864 15.0709 9.55147C15.198 9.4243 15.2712 9.24791 15.2712 9.0681C15.2712 8.88828 15.198 8.71189 15.0709 8.58472Z" fill="#00B2FF"/>
<path d="M38.8 2.85866L37.9548 2.01231L38.7998 1.16719C39.0667 0.900207 39.0667 0.46729 38.7998 0.200238C38.5328 -0.0667459 38.1 -0.0667459 37.833 0.200238L36.9885 1.04481L36.1556 0.210835C36.0275 0.0825735 35.8537 0.0103751 35.6724 0.0103067L24.1023 0.00387998C24.1016 0.00387998 24.101 0.00387998 24.1004 0.00387998C23.1868 0.00387998 22.3278 0.359676 21.6818 1.00584L15.9081 6.78034C15.6412 7.04732 15.6412 7.48024 15.9081 7.74729C16.1751 8.01428 16.6079 8.01428 16.8749 7.74729L22.6486 1.97279C23.0364 1.58486 23.5519 1.37134 24.1004 1.37134C24.1008 1.37134 24.1012 1.37134 24.1016 1.37134L35.3884 1.37763L36.0219 2.01183L33.4854 4.54862C32.4099 3.9043 30.9919 4.0448 30.066 4.97066C29.5371 5.49971 29.2459 6.20303 29.2459 6.95113C29.2459 7.69923 29.5371 8.40255 30.066 8.93159C30.612 9.47759 31.3291 9.75059 32.0463 9.75059C32.7634 9.75059 33.4805 9.47759 34.0264 8.93159C34.9508 8.00703 35.0922 6.59164 34.4514 5.51646L36.9881 2.97933L37.6327 3.62481L37.6265 14.8981C37.6261 15.4461 37.4126 15.9614 37.025 16.349L20.3438 33.0327C19.956 33.4205 19.4403 33.6341 18.892 33.6341C18.3436 33.6341 17.8279 33.4205 17.4401 33.0327L5.96861 21.5593C5.58074 21.1715 5.36719 20.6558 5.36719 20.1073C5.36719 19.5588 5.58074 19.0431 5.96861 18.6553L13.3373 11.2854C13.6043 11.0184 13.6043 10.5855 13.3373 10.3185C13.0703 10.0515 12.6376 10.0515 12.3705 10.3185L5.00181 17.6883C4.35581 18.3344 4 19.1935 4 20.1073C4 21.0211 4.35581 21.8802 5.00181 22.5263L16.4733 33.9996C17.1402 34.6665 18.016 35 18.892 35C19.7679 35 20.6437 34.6665 21.3106 33.9996L37.9918 17.3158C38.6373 16.6702 38.993 15.8118 38.9936 14.8987L39 3.34217C39.0001 3.16085 38.9282 2.98692 38.8 2.85866ZM33.0596 7.96457C32.7889 8.23532 32.429 8.38443 32.0463 8.38443C31.6634 8.38443 31.3036 8.23532 31.0329 7.96457C30.474 7.40572 30.474 6.49633 31.0329 5.93748C31.3123 5.65798 31.6792 5.51831 32.0463 5.51831C32.1845 5.51831 32.3227 5.5382 32.4562 5.57786L31.6672 6.36698C31.4003 6.63396 31.4003 7.06688 31.6672 7.33393C31.8007 7.46746 31.9757 7.53419 32.1506 7.53419C32.3255 7.53419 32.5005 7.46746 32.634 7.33393L33.4208 6.547C33.5629 7.03372 33.4427 7.5815 33.0596 7.96457Z" fill="#00B2FF"/>
<path d="M33.2003 13.7645L25.2338 5.79669C24.1785 4.7412 22.4612 4.74134 21.406 5.79669L8.79912 18.4056C8.28786 18.9168 8.00629 19.5966 8.00629 20.3197C8.00629 21.0428 8.28779 21.7227 8.79905 22.2339L16.7657 30.2016C17.2769 30.7129 17.9565 30.9946 18.6795 30.9946C19.4025 30.9946 20.0822 30.713 20.5934 30.2017L33.2003 17.5928C33.7116 17.0815 33.9931 16.4017 33.9931 15.6786C33.9931 14.9556 33.7116 14.2758 33.2003 13.7645ZM32.2335 16.6258L19.6266 29.2349C19.3737 29.4878 19.0373 29.6272 18.6796 29.6272C18.3219 29.6272 17.9855 29.4878 17.7325 29.2348L9.76586 21.267C9.51286 21.014 9.37354 20.6776 9.37354 20.3198C9.37347 19.9619 9.51286 19.6255 9.76586 19.3725L22.3728 6.76365C22.634 6.50247 22.9769 6.37189 23.3199 6.37189C23.6629 6.37189 24.0059 6.50254 24.267 6.76365L32.2335 14.7314C32.4865 14.9844 32.6258 15.3208 32.6258 15.6786C32.6258 16.0364 32.4865 16.3729 32.2335 16.6258Z" fill="#00B2FF"/>
<path d="M26.2904 13.677C26.5574 13.41 26.5574 12.9771 26.2904 12.71C26.0234 12.443 25.5907 12.443 25.3236 12.71L24.93 13.1037C23.879 12.4544 22.5304 12.5415 21.6779 13.394C21.1808 13.8912 20.9265 14.5662 20.9618 15.2949C20.9959 15.9985 21.2989 16.6702 21.8148 17.1862C21.8149 17.1863 21.8149 17.1863 21.8149 17.1864C22.3648 17.7365 22.4261 18.5701 21.9517 19.0446C21.4771 19.5191 20.6435 19.4577 20.0935 18.9077C19.5435 18.3575 19.4821 17.5238 19.9566 17.0492C20.2235 16.7822 20.2235 16.3493 19.9566 16.0823C19.6896 15.8153 19.2569 15.8153 18.9898 16.0823C18.1373 16.9348 18.0503 18.2836 18.6995 19.3349L18.2324 19.8019C17.9655 20.0689 17.9655 20.5018 18.2324 20.7689C18.3663 20.9025 18.5412 20.9693 18.7161 20.9693C18.8911 20.9693 19.066 20.9025 19.1995 20.769L19.6668 20.3016C20.1261 20.5853 20.6419 20.729 21.1486 20.729C21.8013 20.7289 22.4387 20.4915 22.9186 20.0115C23.9259 19.004 23.8647 17.3033 22.7822 16.22C22.782 16.2198 22.7819 16.2196 22.7817 16.2194C22.5065 15.9441 22.3451 15.5923 22.3275 15.2287C22.3112 14.8901 22.4238 14.582 22.6448 14.361C23.1192 13.8864 23.9526 13.9478 24.5027 14.4977C24.5028 14.4978 24.5028 14.4979 24.5028 14.4979C24.5029 14.498 24.503 14.498 24.503 14.498C25.0529 15.0482 25.1142 15.8817 24.6397 16.3563C24.3727 16.6233 24.3727 17.0562 24.6397 17.3232C24.7732 17.4568 24.9481 17.5235 25.1231 17.5235C25.298 17.5235 25.4729 17.4568 25.6064 17.3232C26.4589 16.4706 26.546 15.1218 25.8968 14.0706L26.2904 13.677Z" fill="#00B2FF"/>
<path d="M19.3717 25.0115L15.8607 21.4999C15.5937 21.2332 15.161 21.233 14.8939 21.4999C14.6269 21.7669 14.6269 22.1998 14.8939 22.4669L18.4049 25.9785C18.5385 26.112 18.7134 26.1788 18.8883 26.1788C19.0632 26.1788 19.2382 26.112 19.3717 25.9785C19.6386 25.7115 19.6386 25.2786 19.3717 25.0115Z" fill="#00B2FF"/>
<path d="M13.9879 19.627C13.8609 19.4999 13.6851 19.4266 13.5047 19.4266C13.3249 19.4266 13.1492 19.4998 13.0214 19.627C12.8943 19.7541 12.8211 19.9305 12.8211 20.111C12.8211 20.2908 12.8942 20.4672 13.0214 20.5944C13.1485 20.7216 13.3249 20.7947 13.5047 20.7947C13.6852 20.7947 13.8609 20.7216 13.9879 20.5944C14.1158 20.4665 14.1889 20.2908 14.1889 20.111C14.1889 19.9305 14.1158 19.7548 13.9879 19.627Z" fill="#00B2FF"/>
</g>
<defs>
<filter id="filter0_d_21898_799" x="0" y="0" width="43" height="43" filterUnits="userSpaceOnUse" color-interpolation-filters="sRGB">
<feFlood flood-opacity="0" result="BackgroundImageFix"/>
<feColorMatrix in="SourceAlpha" type="matrix" values="0 0 0 0 0 0 0 0 0 0 0 0 0 0 0 0 0 0 127 0" result="hardAlpha"/>
<feOffset dy="4"/>
<feGaussianBlur stdDeviation="2"/>
<feComposite in2="hardAlpha" operator="out"/>
<feColorMatrix type="matrix" values="0 0 0 0 0 0 0 0 0 0 0 0 0 0 0 0 0 0 0.25 0"/>
<feBlend mode="normal" in2="BackgroundImageFix" result="effect1_dropShadow_21898_799"/>
<feBlend mode="normal" in="SourceGraphic" in2="effect1_dropShadow_21898_799" result="shape"/>
</filter>
</defs>
</svg>
